<svg width="256" height="256" viewBox="0 0 256 256" fill="none" xmlns="http://www.w3.org/2000/svg">
<path d="M115.469 163.958L156.667 122.76L146.094 112.187L115.323 143.031L100.01 127.719L89.5833 138.073M87.3958 185.833C76.3125 185.833 66.8576 182.017 59.0312 174.385C51.2048 166.705 47.2916 157.347 47.2916 146.312C47.2916 136.833 50.1354 128.375 55.8229 120.937C61.559 113.5 69.0451 108.76 78.2812 106.719C81.3437 95.5382 87.4201 86.4965 96.5104 79.5937C105.649 72.6423 115.979 69.1666 127.5 69.1666C141.743 69.1666 153.799 74.125 163.667 84.0416C173.583 93.9097 178.542 105.965 178.542 120.208C186.951 121.181 193.903 124.826 199.396 131.146C204.937 137.368 207.708 144.66 207.708 153.021C207.708 162.16 204.524 169.913 198.156 176.281C191.788 182.649 184.035 185.833 174.896 185.833H87.3958Z" fill="#2DD881"/>
</svg>
