<svg width="256" height="256" viewBox="0 0 256 256" fill="none" xmlns="http://www.w3.org/2000/svg">
<g clip-path="url(#clip0_313_2)">
<path d="M110.4 181.333L170.667 121.067L155.2 105.6L110.187 150.72L87.7867 128.32L72.5334 143.467M69.3334 213.333C53.12 213.333 39.2889 207.751 27.84 196.587C16.3911 185.351 10.6667 171.662 10.6667 155.52C10.6667 141.653 14.8267 129.28 23.1467 118.4C31.5378 107.52 42.4889 100.587 56 97.6C60.48 81.2444 69.3689 68.0177 82.6667 57.92C96.0356 47.7511 111.147 42.6666 128 42.6666C148.836 42.6666 166.471 49.92 180.907 64.4266C195.413 78.8622 202.667 96.4977 202.667 117.333C214.969 118.756 225.138 124.089 233.173 133.333C241.28 142.436 245.333 153.102 245.333 165.333C245.333 178.702 240.676 190.044 231.36 199.36C222.044 208.676 210.702 213.333 197.333 213.333H69.3334Z" fill="#2DD881"/>
</g>
<defs>
<clipPath id="clip0_313_2">
<rect width="256" height="256" fill="white"/>
</clipPath>
</defs>
</svg>
