<svg width="768" height="256" viewBox="0 0 768 256" fill="none" xmlns="http://www.w3.org/2000/svg">
<path d="M115.469 163.958L156.667 122.76L146.094 112.188L115.323 143.031L100.01 127.719L89.5833 138.073M87.3958 185.833C76.3125 185.833 66.8576 182.017 59.0312 174.385C51.2048 166.705 47.2916 157.347 47.2916 146.313C47.2916 136.833 50.1354 128.375 55.8229 120.938C61.559 113.5 69.0451 108.76 78.2812 106.719C81.3437 95.5383 87.4201 86.4966 96.5104 79.5938C105.649 72.6424 115.979 69.1667 127.5 69.1667C141.743 69.1667 153.799 74.1251 163.667 84.0417C173.583 93.9098 178.542 105.965 178.542 120.208C186.951 121.181 193.903 124.826 199.396 131.146C204.937 137.368 207.708 144.66 207.708 153.021C207.708 162.16 204.524 169.913 198.156 176.281C191.788 182.649 184.035 185.833 174.896 185.833H87.3958Z" fill="#2DD881"/>
<path d="M294.114 120.75H284.159C283.977 119.462 283.606 118.318 283.045 117.318C282.485 116.303 281.765 115.439 280.886 114.727C280.008 114.015 278.992 113.47 277.841 113.091C276.705 112.712 275.47 112.523 274.136 112.523C271.727 112.523 269.629 113.121 267.841 114.318C266.053 115.5 264.667 117.227 263.682 119.5C262.697 121.758 262.205 124.5 262.205 127.727C262.205 131.045 262.697 133.833 263.682 136.091C264.682 138.348 266.076 140.053 267.864 141.205C269.652 142.356 271.72 142.932 274.068 142.932C275.386 142.932 276.606 142.758 277.727 142.409C278.864 142.061 279.871 141.553 280.75 140.886C281.629 140.205 282.356 139.379 282.932 138.409C283.523 137.439 283.932 136.333 284.159 135.091L294.114 135.136C293.856 137.273 293.212 139.333 292.182 141.318C291.167 143.288 289.795 145.053 288.068 146.614C286.356 148.159 284.311 149.386 281.932 150.295C279.568 151.189 276.894 151.636 273.909 151.636C269.758 151.636 266.045 150.697 262.773 148.818C259.515 146.939 256.939 144.22 255.045 140.659C253.167 137.098 252.227 132.788 252.227 127.727C252.227 122.652 253.182 118.333 255.091 114.773C257 111.212 259.591 108.5 262.864 106.636C266.136 104.758 269.818 103.818 273.909 103.818C276.606 103.818 279.106 104.197 281.409 104.955C283.727 105.712 285.78 106.818 287.568 108.273C289.356 109.712 290.811 111.477 291.932 113.568C293.068 115.659 293.795 118.053 294.114 120.75ZM310.67 130.818V151H300.989V104.455H310.398V122.25H310.807C311.595 120.189 312.867 118.576 314.625 117.409C316.383 116.227 318.587 115.636 321.239 115.636C323.663 115.636 325.777 116.167 327.58 117.227C329.398 118.273 330.807 119.78 331.807 121.75C332.822 123.705 333.322 126.045 333.307 128.773V151H323.625V130.5C323.64 128.348 323.095 126.674 321.989 125.477C320.898 124.28 319.367 123.682 317.398 123.682C316.08 123.682 314.913 123.962 313.898 124.523C312.898 125.083 312.11 125.902 311.534 126.977C310.973 128.038 310.686 129.318 310.67 130.818ZM356.835 151.682C353.244 151.682 350.153 150.955 347.562 149.5C344.987 148.03 343.002 145.955 341.608 143.273C340.214 140.576 339.517 137.386 339.517 133.705C339.517 130.114 340.214 126.962 341.608 124.25C343.002 121.538 344.964 119.424 347.494 117.909C350.04 116.394 353.025 115.636 356.449 115.636C358.752 115.636 360.896 116.008 362.881 116.75C364.881 117.477 366.623 118.576 368.108 120.045C369.608 121.515 370.775 123.364 371.608 125.591C372.441 127.803 372.858 130.394 372.858 133.364V136.023H343.381V130.023H363.744C363.744 128.629 363.441 127.394 362.835 126.318C362.229 125.242 361.388 124.402 360.312 123.795C359.252 123.174 358.017 122.864 356.608 122.864C355.138 122.864 353.835 123.205 352.699 123.886C351.578 124.553 350.699 125.455 350.062 126.591C349.426 127.712 349.1 128.962 349.085 130.341V136.045C349.085 137.773 349.403 139.265 350.04 140.523C350.691 141.78 351.608 142.75 352.79 143.432C353.972 144.114 355.373 144.455 356.994 144.455C358.07 144.455 359.055 144.303 359.949 144C360.843 143.697 361.608 143.242 362.244 142.636C362.881 142.03 363.366 141.288 363.699 140.409L372.653 141C372.199 143.152 371.267 145.03 369.858 146.636C368.464 148.227 366.661 149.47 364.449 150.364C362.252 151.242 359.714 151.682 356.835 151.682ZM394.949 151.682C391.373 151.682 388.297 150.924 385.722 149.409C383.161 147.879 381.191 145.758 379.812 143.045C378.449 140.333 377.767 137.212 377.767 133.682C377.767 130.106 378.456 126.97 379.835 124.273C381.229 121.561 383.206 119.447 385.767 117.932C388.328 116.402 391.373 115.636 394.903 115.636C397.949 115.636 400.616 116.189 402.903 117.295C405.191 118.402 407.002 119.955 408.335 121.955C409.669 123.955 410.403 126.303 410.54 129H401.403C401.146 127.258 400.464 125.856 399.358 124.795C398.267 123.72 396.835 123.182 395.062 123.182C393.562 123.182 392.252 123.591 391.131 124.409C390.025 125.212 389.161 126.386 388.54 127.932C387.919 129.477 387.608 131.348 387.608 133.545C387.608 135.773 387.911 137.667 388.517 139.227C389.138 140.788 390.009 141.977 391.131 142.795C392.252 143.614 393.562 144.023 395.062 144.023C396.169 144.023 397.161 143.795 398.04 143.341C398.934 142.886 399.669 142.227 400.244 141.364C400.835 140.485 401.222 139.432 401.403 138.205H410.54C410.388 140.871 409.661 143.22 408.358 145.25C407.07 147.265 405.29 148.841 403.017 149.977C400.744 151.114 398.055 151.682 394.949 151.682ZM425.511 140.955L425.534 129.341H426.943L438.125 116.091H449.239L434.216 133.636H431.92L425.511 140.955ZM416.739 151V104.455H426.42V151H416.739ZM438.557 151L428.284 135.795L434.739 128.955L449.898 151H438.557ZM479.46 151L466.142 104.455H476.892L484.597 136.795H484.983L493.483 104.455H502.688L511.165 136.864H511.574L519.278 104.455H530.028L516.71 151H507.119L498.256 120.568H497.892L489.051 151H479.46ZM547.273 151.682C543.682 151.682 540.591 150.955 538 149.5C535.424 148.03 533.439 145.955 532.045 143.273C530.652 140.576 529.955 137.386 529.955 133.705C529.955 130.114 530.652 126.962 532.045 124.25C533.439 121.538 535.402 119.424 537.932 117.909C540.477 116.394 543.462 115.636 546.886 115.636C549.189 115.636 551.333 116.008 553.318 116.75C555.318 117.477 557.061 118.576 558.545 120.045C560.045 121.515 561.212 123.364 562.045 125.591C562.879 127.803 563.295 130.394 563.295 133.364V136.023H533.818V130.023H554.182C554.182 128.629 553.879 127.394 553.273 126.318C552.667 125.242 551.826 124.402 550.75 123.795C549.689 123.174 548.455 122.864 547.045 122.864C545.576 122.864 544.273 123.205 543.136 123.886C542.015 124.553 541.136 125.455 540.5 126.591C539.864 127.712 539.538 128.962 539.523 130.341V136.045C539.523 137.773 539.841 139.265 540.477 140.523C541.129 141.78 542.045 142.75 543.227 143.432C544.409 144.114 545.811 144.455 547.432 144.455C548.508 144.455 549.492 144.303 550.386 144C551.28 143.697 552.045 143.242 552.682 142.636C553.318 142.03 553.803 141.288 554.136 140.409L563.091 141C562.636 143.152 561.705 145.03 560.295 146.636C558.902 148.227 557.098 149.47 554.886 150.364C552.689 151.242 550.152 151.682 547.273 151.682ZM579.568 151.659C577.341 151.659 575.356 151.273 573.614 150.5C571.871 149.712 570.492 148.553 569.477 147.023C568.477 145.477 567.977 143.553 567.977 141.25C567.977 139.311 568.333 137.682 569.045 136.364C569.758 135.045 570.727 133.985 571.955 133.182C573.182 132.379 574.576 131.773 576.136 131.364C577.712 130.955 579.364 130.667 581.091 130.5C583.121 130.288 584.758 130.091 586 129.909C587.242 129.712 588.144 129.424 588.705 129.045C589.265 128.667 589.545 128.106 589.545 127.364V127.227C589.545 125.788 589.091 124.674 588.182 123.886C587.288 123.098 586.015 122.705 584.364 122.705C582.621 122.705 581.235 123.091 580.205 123.864C579.174 124.621 578.492 125.576 578.159 126.727L569.205 126C569.659 123.879 570.553 122.045 571.886 120.5C573.22 118.939 574.939 117.742 577.045 116.909C579.167 116.061 581.621 115.636 584.409 115.636C586.348 115.636 588.205 115.864 589.977 116.318C591.765 116.773 593.348 117.477 594.727 118.432C596.121 119.386 597.22 120.614 598.023 122.114C598.826 123.598 599.227 125.379 599.227 127.455V151H590.045V146.159H589.773C589.212 147.25 588.462 148.212 587.523 149.045C586.583 149.864 585.455 150.508 584.136 150.977C582.818 151.432 581.295 151.659 579.568 151.659ZM582.341 144.977C583.765 144.977 585.023 144.697 586.114 144.136C587.205 143.561 588.061 142.788 588.682 141.818C589.303 140.848 589.614 139.75 589.614 138.523V134.818C589.311 135.015 588.894 135.197 588.364 135.364C587.848 135.515 587.265 135.659 586.614 135.795C585.962 135.917 585.311 136.03 584.659 136.136C584.008 136.227 583.417 136.311 582.886 136.386C581.75 136.553 580.758 136.818 579.909 137.182C579.061 137.545 578.402 138.038 577.932 138.659C577.462 139.265 577.227 140.023 577.227 140.932C577.227 142.25 577.705 143.258 578.659 143.955C579.629 144.636 580.856 144.977 582.341 144.977ZM625.307 116.091V123.364H604.284V116.091H625.307ZM609.057 107.727H618.739V140.273C618.739 141.167 618.875 141.864 619.148 142.364C619.42 142.848 619.799 143.189 620.284 143.386C620.784 143.583 621.36 143.682 622.011 143.682C622.466 143.682 622.92 143.644 623.375 143.568C623.83 143.477 624.178 143.409 624.42 143.364L625.943 150.568C625.458 150.72 624.777 150.894 623.898 151.091C623.019 151.303 621.951 151.432 620.693 151.477C618.36 151.568 616.314 151.258 614.557 150.545C612.814 149.833 611.458 148.727 610.489 147.227C609.519 145.727 609.042 143.833 609.057 141.545V107.727ZM642.045 130.818V151H632.364V104.455H641.773V122.25H642.182C642.97 120.189 644.242 118.576 646 117.409C647.758 116.227 649.962 115.636 652.614 115.636C655.038 115.636 657.152 116.167 658.955 117.227C660.773 118.273 662.182 119.78 663.182 121.75C664.197 123.705 664.697 126.045 664.682 128.773V151H655V130.5C655.015 128.348 654.47 126.674 653.364 125.477C652.273 124.28 650.742 123.682 648.773 123.682C647.455 123.682 646.288 123.962 645.273 124.523C644.273 125.083 643.485 125.902 642.909 126.977C642.348 128.038 642.061 129.318 642.045 130.818ZM688.21 151.682C684.619 151.682 681.528 150.955 678.938 149.5C676.362 148.03 674.377 145.955 672.983 143.273C671.589 140.576 670.892 137.386 670.892 133.705C670.892 130.114 671.589 126.962 672.983 124.25C674.377 121.538 676.339 119.424 678.869 117.909C681.415 116.394 684.4 115.636 687.824 115.636C690.127 115.636 692.271 116.008 694.256 116.75C696.256 117.477 697.998 118.576 699.483 120.045C700.983 121.515 702.15 123.364 702.983 125.591C703.816 127.803 704.233 130.394 704.233 133.364V136.023H674.756V130.023H695.119C695.119 128.629 694.816 127.394 694.21 126.318C693.604 125.242 692.763 124.402 691.688 123.795C690.627 123.174 689.392 122.864 687.983 122.864C686.513 122.864 685.21 123.205 684.074 123.886C682.953 124.553 682.074 125.455 681.438 126.591C680.801 127.712 680.475 128.962 680.46 130.341V136.045C680.46 137.773 680.778 139.265 681.415 140.523C682.066 141.78 682.983 142.75 684.165 143.432C685.347 144.114 686.748 144.455 688.369 144.455C689.445 144.455 690.43 144.303 691.324 144C692.218 143.697 692.983 143.242 693.619 142.636C694.256 142.03 694.741 141.288 695.074 140.409L704.028 141C703.574 143.152 702.642 145.03 701.233 146.636C699.839 148.227 698.036 149.47 695.824 150.364C693.627 151.242 691.089 151.682 688.21 151.682ZM710.551 151V116.091H719.938V122.182H720.301C720.938 120.015 722.006 118.379 723.506 117.273C725.006 116.152 726.733 115.591 728.688 115.591C729.172 115.591 729.695 115.621 730.256 115.682C730.816 115.742 731.309 115.826 731.733 115.932V124.523C731.278 124.386 730.65 124.265 729.847 124.159C729.044 124.053 728.309 124 727.642 124C726.218 124 724.945 124.311 723.824 124.932C722.718 125.538 721.839 126.386 721.188 127.477C720.551 128.568 720.233 129.826 720.233 131.25V151H710.551Z" fill="#2DD881"/>
</svg>
